<svg width="32" height="32" viewBox="0 0 32 32" fill="none" xmlns="http://www.w3.org/2000/svg">
<path d="M24.9848 26.0497C24.493 21.7589 22.5189 19.9805 21.0769 18.6836C20.08 17.7835 19.6007 17.3153 19.6007 16.5C19.6007 15.6959 20.0783 15.2366 21.0724 14.3549C22.5313 13.0619 24.5291 11.2907 24.9859 6.94198C25.0224 6.57662 24.9812 6.20773 24.8649 5.85917C24.7486 5.51061 24.5598 5.19016 24.3108 4.91854C24.0448 4.62842 23.7205 4.3968 23.3588 4.23859C22.997 4.08039 22.6059 3.99912 22.2106 4.00001H9.78943C9.39355 3.99879 9.00181 4.0799 8.63948 4.23811C8.27716 4.39632 7.9523 4.62811 7.68586 4.91854C7.43756 5.19053 7.24949 5.51113 7.13379 5.85964C7.01809 6.20816 6.97732 6.57687 7.01411 6.94198C7.46926 11.2768 9.45975 13.0352 10.9129 14.3186C11.9166 15.2054 12.3993 15.668 12.3993 16.5C12.3993 17.3426 11.9155 17.8147 10.9084 18.7182C9.47381 20.0073 7.5047 21.7723 7.01524 26.0497C6.97553 26.4134 7.01364 26.7813 7.12706 27.1294C7.24049 27.4775 7.42668 27.7979 7.67348 28.0697C7.94048 28.3636 8.26691 28.5983 8.6315 28.7586C8.99608 28.9188 9.39064 29.0011 9.78943 29H22.2106C22.6094 29.0011 23.0039 28.9188 23.3685 28.7586C23.7331 28.5983 24.0595 28.3636 24.3265 28.0697C24.5733 27.7979 24.7595 27.4775 24.8729 27.1294C24.9864 26.7813 25.0245 26.4134 24.9848 26.0497ZM20.9115 26.3214H11.1127C10.235 26.3214 9.98747 25.317 10.603 24.6942C12.0927 23.1964 15.0998 22.1239 15.0998 20.4062V14.7143C15.0998 13.6066 12.9619 12.7612 11.6393 10.9643C11.421 10.668 11.4429 10.25 11.9976 10.25H20.0277C20.5008 10.25 20.6027 10.6646 20.3877 10.9615C19.0842 12.7612 16.9002 13.601 16.9002 14.7143V20.4062C16.9002 22.1099 20.0344 23.029 21.4235 24.6959C21.9833 25.3677 21.7875 26.3214 20.9115 26.3214Z" fill="white"/>
</svg>
