<svg width="1127" height="369" viewBox="0 0 1127 369" fill="none" xmlns="http://www.w3.org/2000/svg">
<path d="M4.5 369C2.29086 369 0.5 367.209 0.5 365V4C0.5 1.79086 2.29086 0 4.5 0H855.058C857.267 0 859.058 1.79086 859.058 4V65.048C859.058 66.0742 860.419 66.4346 860.927 65.543L897.115 2.02001C897.827 0.771144 899.154 0 900.591 0H1122.1C1124.93 0 1126.86 2.85296 1125.82 5.47955L1031.98 241.169C1031.46 242.481 1031.67 243.972 1032.53 245.09L1123.04 362.559C1125.06 365.189 1123.19 369 1119.87 369H858.087C856.01 369 854.279 367.411 854.102 365.342L844.102 248.706C844.007 247.6 842.449 247.449 842.144 248.517L808.585 366.098C808.095 367.816 806.525 369 804.739 369H4.5Z" fill="url(#paint0_linear_0_4)"/>
<defs>
<linearGradient id="paint0_linear_0_4" x1="1151.5" y1="184.5" x2="366.499" y2="184.5" gradientUnits="userSpaceOnUse">
<stop stop-color="white"/>
<stop offset="1" stop-color="white" stop-opacity="0"/>
</linearGradient>
</defs>
</svg>
