<svg width="32" height="32" viewBox="0 0 32 32" fill="none" xmlns="http://www.w3.org/2000/svg">
<g clip-path="url(#clip0_542_97)">
<path fill-rule="evenodd" clip-rule="evenodd" d="M18.4685 26.737L17.8135 27.8438C17.2299 28.8298 15.7715 28.8298 15.1866 27.8438L14.5317 26.737L14.5277 26.7302C14.0229 25.8768 13.7694 25.4483 13.362 25.2121C12.9547 24.9747 12.4428 24.9656 11.421 24.9476L11.413 24.9474C9.89533 24.9221 8.94437 24.829 8.14687 24.4979C7.41386 24.1943 6.74782 23.7493 6.1868 23.1883C5.62577 22.6272 5.18075 21.9612 4.87712 21.2282C4.41675 20.1189 4.41675 18.7112 4.41675 15.8958V14.6875C4.41675 10.7326 4.41675 8.75457 5.30729 7.30216C5.80517 6.48919 6.48837 5.80557 7.30104 5.3072C8.75466 4.41666 10.7339 4.41666 14.6876 4.41666H18.3126C22.2675 4.41666 24.2455 4.41666 25.6991 5.3072C26.5117 5.80523 27.1948 6.48842 27.6929 7.30095C28.5834 8.75457 28.5834 10.7338 28.5834 14.6875V15.8958C28.5834 18.7112 28.5834 20.1189 28.1242 21.2282C27.8205 21.9613 27.3753 22.6274 26.814 23.1885C26.2528 23.7495 25.5865 24.1945 24.8533 24.4979C24.0558 24.829 23.1048 24.9209 21.5872 24.9474L21.5791 24.9476C20.5574 24.9656 20.0455 24.9747 19.6381 25.2121C19.2297 25.4489 18.976 25.8779 18.4685 26.737ZM10.7605 12.875C10.7605 12.6346 10.856 12.4041 11.0259 12.2342C11.1959 12.0642 11.4264 11.9687 11.6667 11.9687H21.3334C21.5738 11.9687 21.8043 12.0642 21.9742 12.2342C22.1442 12.4041 22.2397 12.6346 22.2397 12.875C22.2397 13.1153 22.1442 13.3458 21.9742 13.5158C21.8043 13.6858 21.5738 13.7812 21.3334 13.7812H11.6667C11.4264 13.7812 11.1959 13.6858 11.0259 13.5158C10.856 13.3458 10.7605 13.1153 10.7605 12.875ZM11.0259 16.4633C10.856 16.6333 10.7605 16.8638 10.7605 17.1042C10.7605 17.3445 10.856 17.575 11.0259 17.745C11.1959 17.9149 11.4264 18.0104 11.6667 18.0104H18.3126C18.5529 18.0104 18.7834 17.9149 18.9534 17.745C19.1234 17.575 19.2188 17.3445 19.2188 17.1042C19.2188 16.8638 19.1234 16.6333 18.9534 16.4633C18.7834 16.2934 18.5529 16.1979 18.3126 16.1979H11.6667C11.4264 16.1979 11.1959 16.2934 11.0259 16.4633Z" fill="white"/>
</g>
<defs>
<clipPath id="clip0_542_97">
<rect width="25" height="25" fill="white" transform="translate(4 4)"/>
</clipPath>
</defs>
</svg>
