<svg width="32" height="32" viewBox="0 0 32 32" fill="none" xmlns="http://www.w3.org/2000/svg">
<path d="M24.1881 12.7504V13.6304C24.1881 14.6867 24.4882 15.7192 25.0532 16.598L26.4382 18.7519C27.702 20.7194 26.737 23.3933 24.5382 24.0146C18.7926 25.6421 12.708 25.6421 6.96243 24.0146C4.76359 23.3933 3.79855 20.7194 5.06236 18.7519L6.44741 16.598C7.0144 15.7122 7.31508 14.6822 7.3137 13.6304V12.7504C7.3137 7.91766 11.0914 4 15.7503 4C20.4092 4 24.1881 7.91766 24.1881 12.7504Z" fill="white"/>
<path d="M9.80371 24.6821C10.2122 25.9373 11.0074 27.031 12.0754 27.8066C13.1435 28.5823 14.4296 29 15.7496 29C17.0696 29 18.3557 28.5823 19.4237 27.8066C20.4918 27.031 21.287 25.9373 21.6955 24.6821C17.764 25.4196 13.7364 25.4196 9.80371 24.6821Z" fill="white" fill-opacity="0.6"/>
</svg>
