<svg width="32" height="32" viewBox="0 0 32 32" fill="none" xmlns="http://www.w3.org/2000/svg">
<path fill-rule="evenodd" clip-rule="evenodd" d="M27.576 4C27.9536 4 28.3159 4.15003 28.5829 4.41709C28.85 4.68415 29 5.04636 29 5.42403V13.4798C29.0001 13.7024 28.9479 13.922 28.8478 14.1208C28.7476 14.3196 28.6022 14.4922 28.4233 14.6247L18.1731 22.2005L19.5202 23.5491C19.7872 23.8162 19.9372 24.1783 19.9372 24.5559C19.9372 24.9335 19.7872 25.2956 19.5202 25.5627L17.5066 27.5763C17.2953 27.7874 17.0229 27.9268 16.7279 27.9746C16.433 28.0224 16.1305 27.9762 15.8633 27.8426L12.7532 26.2889L10.4577 28.5831C10.1906 28.85 9.82849 29 9.45089 29C9.07329 29 8.71115 28.85 8.4441 28.5831L4.41694 24.5559C4.14997 24.2889 4 23.9267 4 23.5491C4 23.1715 4.14997 22.8094 4.41694 22.5423L6.71105 20.2468L5.15743 17.1367C5.02382 16.8695 4.97764 16.567 5.02543 16.2721C5.07322 15.9771 5.21256 15.7047 5.42373 15.4934L7.43731 13.4798C7.70435 13.2128 8.0665 13.0628 8.4441 13.0628C8.8217 13.0628 9.18384 13.2128 9.45089 13.4798L10.7994 14.8269L18.3753 4.57673C18.5078 4.39779 18.6804 4.2524 18.8792 4.15224C19.078 4.05208 19.2976 3.99994 19.5202 4H27.576Z" fill="white"/>
</svg>
