<svg width="32" height="32" viewBox="0 0 32 32" fill="none" xmlns="http://www.w3.org/2000/svg">
<path d="M28.0001 4H20.0008C19.8477 3.99998 19.6966 4.03514 19.5592 4.10275C19.4218 4.17037 19.3018 4.26863 19.2084 4.38998L11.2091 14.7906L10.0017 13.5856C9.81594 13.3997 9.59538 13.2522 9.35261 13.1516C9.10983 13.0509 8.8496 12.9991 8.58679 12.9991C8.32399 12.9991 8.06376 13.0509 7.82098 13.1516C7.57821 13.2522 7.35765 13.3997 7.17192 13.5856L5.58581 15.173C5.40006 15.3588 5.25271 15.5792 5.15218 15.8219C5.05165 16.0646 4.99991 16.3247 4.99991 16.5873C4.99991 16.85 5.05165 17.1101 5.15218 17.3528C5.25271 17.5954 5.40006 17.8159 5.58581 18.0016L8.08559 20.5015L4.5859 24.0012C4.40015 24.187 4.2528 24.4074 4.15227 24.6501C4.05174 24.8928 4 25.1529 4 25.4155C4 25.6782 4.05174 25.9383 4.15227 26.181C4.2528 26.4236 4.40015 26.6441 4.5859 26.8298L6.17201 28.4147C6.54701 28.7895 7.05547 29 7.58563 29C8.11579 29 8.62426 28.7895 8.99926 28.4147L12.499 24.9149L14.9987 27.4148C15.1845 27.6007 15.405 27.7482 15.6478 27.8489C15.8906 27.9495 16.1508 28.0013 16.4136 28.0013C16.6764 28.0013 16.9366 27.9495 17.1794 27.8489C17.4222 27.7482 17.6428 27.6007 17.8285 27.4148L19.4146 25.8274C19.6003 25.6417 19.7477 25.4212 19.8482 25.1785C19.9487 24.9358 20.0005 24.6758 20.0005 24.4131C20.0005 24.1504 19.9487 23.8903 19.8482 23.6477C19.7477 23.405 19.6003 23.1845 19.4146 22.9988L18.2097 21.7939L28.61 13.7944C28.7317 13.7007 28.8302 13.5803 28.8978 13.4424C28.9654 13.3046 29.0004 13.153 29 12.9994V4.99994C29 4.73474 28.8946 4.4804 28.7071 4.29287C28.5196 4.10535 28.2653 4 28.0001 4ZM7.58813 26.9986L6.00202 25.4137L9.50171 21.9139L11.0866 23.4988L7.58813 26.9986ZM16.4136 25.9986L7.00193 16.588L8.58929 14.9993L18.001 24.4125L16.4136 25.9986ZM27.0002 12.507L16.7836 20.3665L15.4162 18.9991L21.7081 12.707C21.8956 12.5193 22.0008 12.2649 22.0007 11.9997C22.0006 11.7344 21.8951 11.4801 21.7075 11.2927C21.5199 11.1052 21.2655 11 21.0003 11.0001C20.735 11.0002 20.4807 11.1057 20.2933 11.2933L14.0013 17.5841L12.6352 16.2167L20.4932 5.99987H27.0002V12.507Z" fill="white"/>
</svg>
